<svg width="309" height="62" viewBox="0 0 309 62" fill="none" xmlns="http://www.w3.org/2000/svg">
<mask id="mask0_8656_3490" style="mask-type:luminance" maskUnits="userSpaceOnUse" x="0" y="0" width="78" height="62">
<path d="M77.7416 0H0V62H77.7416V0Z" fill="white"/>
</mask>
<g mask="url(#mask0_8656_3490)">
<path d="M23.2949 0H77.742L65.2937 17.1911H10.6177L23.2949 0Z" fill="url(#paint0_linear_8656_3490)"/>
<path d="M10.5918 17.1912H37.7772L24.1591 35.603L10.5918 17.1912Z" fill="url(#paint1_linear_8656_3490)"/>
<path d="M54.4471 62H0L12.461 44.8215H67.137L54.4471 62Z" fill="url(#paint2_linear_8656_3490)"/>
<path d="M67.1497 44.8215H39.9771L53.557 26.4097L67.1497 44.8215Z" fill="url(#paint3_linear_8656_3490)"/>
</g>
<path d="M95.1234 49.7552C93.0354 49.7913 90.9522 49.5432 88.9311 49.0177C87.3264 48.5815 85.8142 47.8577 84.468 46.8815C83.3142 45.9893 82.3792 44.8456 81.7342 43.5374C81.0758 42.1452 80.6957 40.6377 80.6152 39.0997H83.1583C83.3482 40.4977 83.8383 41.8381 84.5951 43.0288C85.2496 44.0327 86.118 44.8794 87.1382 45.5083C88.2338 46.134 89.4299 46.5643 90.6731 46.7798C92.0607 47.0403 93.47 47.168 94.8819 47.1613C96.2905 47.1801 97.6959 47.022 99.0652 46.6908C100.2 46.3985 101.275 45.9124 102.244 45.254C103.076 44.6733 103.767 43.9128 104.266 43.0288C104.737 42.0992 104.976 41.0699 104.965 40.028C104.999 39.0142 104.79 38.0071 104.355 37.0907C103.882 36.2182 103.178 35.4924 102.32 34.9927C101.127 34.2924 99.8435 33.7576 98.5057 33.4033C96.9545 32.9328 95.0217 32.4496 92.7075 31.9664C91.0441 31.6135 89.4114 31.1288 87.8248 30.5169C86.6085 30.0536 85.4684 29.4107 84.4426 28.6096C83.5959 27.9245 82.9173 27.0545 82.459 26.0665C82.0183 25.0166 81.8017 23.8863 81.8232 22.7478C81.8051 21.4749 82.0883 20.2157 82.6497 19.0731C83.2245 17.9358 84.0506 16.9444 85.0656 16.174C86.2129 15.3213 87.5054 14.6837 88.8802 14.2921C90.4746 13.8294 92.1282 13.6023 93.7883 13.6182C95.4458 13.6038 97.0974 13.8178 98.6965 14.254C100.089 14.6168 101.407 15.2238 102.587 16.0468C103.695 16.8128 104.629 17.8049 105.326 18.9577C106.023 20.1105 106.467 21.3979 106.631 22.7351H104.266C104.038 21.8064 103.651 20.9244 103.121 20.1285C102.578 19.3048 101.872 18.5997 101.049 18.0559C100.14 17.4208 99.1229 16.9556 98.048 16.6826C96.7613 16.3228 95.4293 16.1515 94.0935 16.174C91.5928 15.9706 89.0899 16.5386 86.922 17.8016C86.1597 18.324 85.5411 19.03 85.1233 19.8544C84.7056 20.6789 84.502 21.5952 84.5316 22.5189C84.5149 23.3378 84.6664 24.1514 84.9766 24.9094C85.3097 25.6534 85.8206 26.304 86.4643 26.804C87.3393 27.4072 88.2935 27.8865 89.2998 28.2281C90.7329 28.7028 92.1936 29.0892 93.6739 29.3852L96.8273 30.0464C97.9081 30.288 98.9635 30.555 99.9807 30.8856C100.998 31.1949 101.989 31.5861 102.943 32.0554C103.841 32.4963 104.662 33.0804 105.372 33.7847C106.087 34.4797 106.65 35.3153 107.025 36.2388C107.478 37.2939 107.695 38.4352 107.661 39.5829C107.676 41.0086 107.349 42.4171 106.707 43.69C106.08 44.9411 105.191 46.0426 104.1 46.9197C102.907 47.8546 101.555 48.5655 100.108 49.0177C98.4954 49.5239 96.8133 49.7727 95.1234 49.7552ZM140.644 49.1194H115.43V14.2031H139.78V16.7462H117.973V29.665H138.406V32.208H117.973V46.5637H140.644V49.1194ZM169.139 49.1194H148.579V14.2031H151.122V46.5637H169.114L169.139 49.1194ZM196.744 49.1194H176.184V14.2031H178.727V46.5637H196.732L196.744 49.1194ZM207.336 49.1194H204.793V14.2031H207.336V49.1194ZM230.288 49.7552C228.2 49.7913 226.116 49.5432 224.095 49.0177C222.491 48.5815 220.978 47.8577 219.632 46.8815C218.478 45.9893 217.543 44.8456 216.898 43.5374C216.24 42.1452 215.86 40.6377 215.779 39.0997H218.322C218.512 40.4977 219.002 41.8381 219.759 43.0288C220.414 44.0327 221.282 44.8794 222.302 45.5083C223.398 46.134 224.594 46.5643 225.837 46.7798C227.225 47.0403 228.634 47.168 230.046 47.1613C231.455 47.1801 232.86 47.022 234.229 46.6908C235.364 46.3985 236.439 45.9124 237.408 45.254C238.257 44.6691 238.958 43.8941 239.455 42.9906C239.9 42.0665 240.138 41.0568 240.154 40.0314C240.169 39.006 239.961 37.9896 239.544 37.0526C239.075 36.1773 238.37 35.4506 237.51 34.9545C236.316 34.2552 235.033 33.7205 233.695 33.3651C232.144 32.8947 230.199 32.4115 227.884 31.9283C226.218 31.5885 224.581 31.1165 222.989 30.5169C221.773 30.0536 220.633 29.4107 219.607 28.6096C218.76 27.9245 218.081 27.0545 217.623 26.0665C217.182 25.0166 216.966 23.8863 216.987 22.7478C216.973 21.4546 217.27 20.1769 217.852 19.0222C218.431 17.8844 219.262 16.8931 220.281 16.1231C221.427 15.269 222.72 14.6312 224.095 14.2413C225.69 13.7794 227.343 13.5524 229.003 13.5673C230.661 13.553 232.312 13.7669 233.911 14.2031C235.295 14.5687 236.604 15.1757 237.777 15.996C238.87 16.7499 239.792 17.7245 240.485 18.8569C241.196 20.0193 241.651 21.3197 241.82 22.6715H239.366C239.139 21.7428 238.752 20.8608 238.222 20.0649C237.678 19.2412 236.973 18.5362 236.149 17.9923C235.24 17.3573 234.223 16.892 233.149 16.619C231.866 16.2592 230.538 16.0879 229.207 16.1104C226.714 15.9451 224.23 16.544 222.086 17.827C221.324 18.3495 220.705 19.0554 220.287 19.8799C219.87 20.7043 219.666 21.6206 219.696 22.5444C219.679 23.3633 219.83 24.1768 220.141 24.9349C220.483 25.6663 220.998 26.3035 221.641 26.7913C222.518 27.3919 223.471 27.871 224.477 28.2154C225.91 28.69 227.37 29.0765 228.851 29.3725L232.004 30.0337C233.085 30.2753 234.14 30.5423 235.158 30.8729C236.175 31.1822 237.166 31.5734 238.12 32.0427C239.02 32.4804 239.841 33.0648 240.549 33.772C241.264 34.467 241.826 35.3026 242.202 36.2261C242.659 37.2802 242.88 38.4216 242.85 39.5702C242.867 40.9975 242.535 42.4072 241.884 43.6773C241.275 44.9223 240.408 46.0233 239.341 46.907C238.114 47.8588 236.722 48.5745 235.234 49.0177C233.634 49.5199 231.965 49.7688 230.288 49.7552ZM274.562 16.7589H262.356V49.1194H259.813V16.7589H247.733V14.2158H274.575L274.562 16.7589ZM308.449 49.1194H305.397L301.125 37.8918H283.934C283.323 39.6592 282.662 41.5284 281.925 43.4993L279.852 49.1194H277.194L280.577 40.2187C281.708 37.3196 282.815 34.4586 283.921 31.6104C285.027 28.7622 286.133 25.8631 287.24 22.964C288.346 20.0649 289.503 17.1276 290.647 14.1395H294.258L308.449 49.1194ZM300.387 35.8828L292.288 16.53L284.658 35.9463L300.387 35.8828Z" fill="black"/>
<defs>
<linearGradient id="paint0_linear_8656_3490" x1="10.5922" y1="8.59557" x2="77.742" y2="8.59557" gradientUnits="userSpaceOnUse">
<stop stop-color="#654EA3"/>
<stop offset="1" stop-color="#EAAFC8"/>
</linearGradient>
<linearGradient id="paint1_linear_8656_3490" x1="24.1845" y1="17.1912" x2="24.1845" y2="35.603" gradientUnits="userSpaceOnUse">
<stop stop-color="#654EA3"/>
<stop offset="1" stop-color="#EAAFC8"/>
</linearGradient>
<linearGradient id="paint2_linear_8656_3490" x1="0" y1="53.4171" x2="67.1497" y2="53.4171" gradientUnits="userSpaceOnUse">
<stop stop-color="#654EA3"/>
<stop offset="1" stop-color="#EAAFC8"/>
</linearGradient>
<linearGradient id="paint3_linear_8656_3490" x1="53.557" y1="26.4097" x2="53.557" y2="44.8215" gradientUnits="userSpaceOnUse">
<stop stop-color="#EAAFC8"/>
<stop offset="1" stop-color="#654EA3"/>
</linearGradient>
</defs>
</svg>